<svg width="263" height="100" viewBox="0 0 263 100" fill="none" xmlns="http://www.w3.org/2000/svg">
<circle cx="50" cy="50" r="50" fill="#003366"/>
<path d="M57.829 21L91.4061 50.8235L57 78.9941" stroke="white" stroke-width="3" stroke-miterlimit="3.8637" stroke-linecap="round"/>
<path d="M40.829 21L74.4061 50.8235L40 78.9941" stroke="white" stroke-width="3" stroke-miterlimit="3.8637" stroke-linecap="round"/>
<path d="M23.829 21L57.4061 50.8235L23 78.9941" stroke="white" stroke-width="3" stroke-miterlimit="3.8637" stroke-linecap="round"/>
<path d="M131.051 66L135.881 36.9091H146.79C149.025 36.9091 150.838 37.2973 152.23 38.0739C153.622 38.8504 154.593 39.9394 155.142 41.3409C155.691 42.733 155.81 44.357 155.497 46.2131C155.194 48.0691 154.531 49.6837 153.509 51.0568C152.495 52.4205 151.155 53.4763 149.489 54.2244C147.831 54.9725 145.885 55.3466 143.651 55.3466H135.881L136.619 50.9716H143.693C145 50.9716 146.098 50.7917 146.989 50.4318C147.879 50.0625 148.58 49.5275 149.091 48.8267C149.612 48.1165 149.957 47.2453 150.128 46.2131C150.289 45.1809 150.227 44.3002 149.943 43.571C149.669 42.8324 149.143 42.2737 148.366 41.8949C147.599 41.5066 146.563 41.3125 145.256 41.3125H140.426L136.321 66H131.051ZM148.267 52.8182L153.281 66H147.401L142.514 52.8182H148.267ZM163.217 66.4403C161.835 66.4403 160.632 66.1941 159.609 65.7017C158.587 65.1998 157.834 64.4612 157.351 63.4858C156.877 62.5104 156.759 61.3078 156.996 59.8778C157.204 58.6468 157.602 57.6288 158.189 56.8239C158.786 56.0189 159.515 55.375 160.376 54.892C161.248 54.3996 162.195 54.0303 163.217 53.7841C164.25 53.5379 165.301 53.358 166.371 53.2443C167.678 53.1117 168.733 52.9886 169.538 52.875C170.353 52.7614 170.964 52.5909 171.371 52.3636C171.778 52.1269 172.024 51.767 172.109 51.2841V51.1989C172.28 50.1288 172.109 49.3002 171.598 48.7131C171.087 48.1259 170.234 47.8324 169.041 47.8324C167.791 47.8324 166.74 48.107 165.888 48.6562C165.036 49.2055 164.415 49.8542 164.027 50.6023L159.368 49.9205C159.955 48.5947 160.76 47.4867 161.783 46.5966C162.805 45.697 163.984 45.0246 165.32 44.5795C166.664 44.125 168.099 43.8977 169.624 43.8977C170.665 43.8977 171.683 44.0208 172.678 44.267C173.681 44.5133 174.567 44.9205 175.334 45.4886C176.11 46.0473 176.679 46.8097 177.038 47.7756C177.408 48.7415 177.469 49.9489 177.223 51.3977L174.794 66H169.851L170.362 63.0028H170.192C169.785 63.6089 169.254 64.1771 168.601 64.7074C167.947 65.2282 167.171 65.6496 166.271 65.9716C165.372 66.2841 164.354 66.4403 163.217 66.4403ZM165.163 62.6619C166.196 62.6619 167.124 62.4583 167.947 62.0511C168.771 61.6345 169.448 61.0852 169.979 60.4034C170.509 59.7216 170.84 58.9782 170.973 58.1733L171.399 55.6023C171.21 55.7348 170.916 55.858 170.518 55.9716C170.121 56.0852 169.676 56.1847 169.183 56.2699C168.7 56.3551 168.222 56.4309 167.749 56.4972C167.275 56.5634 166.868 56.6203 166.527 56.6676C165.741 56.7718 165.021 56.9422 164.368 57.179C163.724 57.4157 163.189 57.7472 162.763 58.1733C162.346 58.59 162.086 59.1297 161.982 59.7926C161.83 60.7301 162.053 61.4451 162.649 61.9375C163.246 62.4205 164.084 62.6619 165.163 62.6619ZM189.425 66.4261C187.247 66.4261 185.457 65.9479 184.055 64.9915C182.654 64.035 181.674 62.714 181.115 61.0284C180.566 59.3333 180.476 57.3826 180.845 55.1761C181.205 52.9602 181.948 51.0047 183.075 49.3097C184.212 47.6051 185.642 46.2794 187.365 45.3324C189.089 44.3759 191.016 43.8977 193.146 43.8977C194.917 43.8977 196.428 44.2244 197.678 44.8778C198.937 45.5218 199.875 46.4356 200.49 47.6193C201.115 48.7936 201.357 50.1667 201.214 51.7386H196.286C196.267 50.6875 195.94 49.8116 195.305 49.1108C194.671 48.4006 193.743 48.0455 192.521 48.0455C191.461 48.0455 190.485 48.3295 189.595 48.8977C188.705 49.4564 187.952 50.2614 187.337 51.3125C186.721 52.3636 186.295 53.6231 186.058 55.0909C185.812 56.5777 185.817 57.8561 186.072 58.9261C186.338 59.9867 186.816 60.8059 187.507 61.3835C188.208 61.9517 189.093 62.2358 190.163 62.2358C190.921 62.2358 191.626 62.0937 192.28 61.8097C192.933 61.5161 193.506 61.0947 193.999 60.5455C194.5 59.9962 194.893 59.3286 195.178 58.5426H200.092C199.704 60.0862 199.013 61.4545 198.018 62.6477C197.034 63.8314 195.812 64.7595 194.354 65.4318C192.895 66.0947 191.252 66.4261 189.425 66.4261ZM212.653 66.4261C210.465 66.4261 208.656 65.9716 207.227 65.0625C205.797 64.1439 204.793 62.8466 204.215 61.1705C203.647 59.4848 203.552 57.5009 203.931 55.2188C204.3 52.9744 205.053 51.0047 206.19 49.3097C207.326 47.6051 208.746 46.2794 210.451 45.3324C212.165 44.3759 214.059 43.8977 216.133 43.8977C217.478 43.8977 218.713 44.1155 219.84 44.5511C220.967 44.9773 221.919 45.6402 222.695 46.5398C223.472 47.4394 224.007 48.5852 224.3 49.9773C224.594 51.3598 224.58 53.0076 224.258 54.9205L224.016 56.4972H206.119L206.673 53.0312H219.627C219.798 52.0464 219.741 51.1705 219.457 50.4034C219.173 49.6269 218.699 49.0161 218.036 48.571C217.373 48.1259 216.545 47.9034 215.55 47.9034C214.537 47.9034 213.59 48.1638 212.71 48.6847C211.838 49.196 211.104 49.8589 210.508 50.6733C209.911 51.4877 209.532 52.3447 209.371 53.2443L208.789 56.5682C208.581 57.9318 208.628 59.0445 208.931 59.9062C209.234 60.768 209.764 61.4025 210.522 61.8097C211.28 62.2169 212.236 62.4205 213.391 62.4205C214.149 62.4205 214.85 62.3163 215.494 62.108C216.138 61.8996 216.71 61.5871 217.212 61.1705C217.724 60.7443 218.15 60.2235 218.491 59.608L223.192 60.1477C222.672 61.4167 221.909 62.5246 220.906 63.4716C219.902 64.4091 218.699 65.1383 217.298 65.6591C215.906 66.1705 214.357 66.4261 212.653 66.4261ZM247.049 36.9091L242.219 66H236.95L241.779 36.9091H247.049ZM262.23 44.1818L261.562 48.1591H249.034L249.688 44.1818H262.23ZM253.636 38.9545H258.778L255.369 59.4375C255.265 60.1288 255.284 60.6591 255.426 61.0284C255.578 61.3883 255.819 61.6345 256.151 61.767C256.491 61.8996 256.875 61.9659 257.301 61.9659C257.614 61.9659 257.907 61.9422 258.182 61.8949C258.456 61.8381 258.674 61.7955 258.835 61.767L259.062 65.7869C258.75 65.8816 258.329 65.9858 257.798 66.0994C257.277 66.2131 256.652 66.2794 255.923 66.2983C254.616 66.3267 253.48 66.1278 252.514 65.7017C251.558 65.2661 250.857 64.5985 250.412 63.6989C249.976 62.7898 249.877 61.6534 250.114 60.2898L253.636 38.9545Z" fill="black"/>
</svg>
